<?xml version="1.0" encoding="UTF-8" standalone="no" ?>
<!DOCTYPE svg PUBLIC "-//W3C//DTD SVG 1.1//EN" "http://www.w3.org/Graphics/SVG/1.1/DTD/svg11.dtd">
<svg xmlns="http://www.w3.org/2000/svg" xmlns:xlink="http://www.w3.org/1999/xlink" version="1.1" width="400" height="400" viewBox="0 0 400 400" xml:space="preserve">
<desc>Created with Fabric.js 3.6.2</desc>
<defs>
</defs>
<g transform="matrix(3.13 0 0 3.13 200 200)" id="twitter-2"  >
<path style="stroke: none; stroke-width: 1; stroke-dasharray: none; stroke-linecap: butt; stroke-dashoffset: 0; stroke-linejoin: miter; stroke-miterlimit: 4; fill: rgb(221,135,102); fill-rule: nonzero; opacity: 1;"  transform=" translate(-32, -32)" d="M 5 8 a 37 37 0 0 0 26 14 a 13 13 0 0 1 13 -16 a 13 13 0 0 1 10 4 a 13 13 0 0 0 8 -3 a 13 13 0 0 1 -5 7 a 13 13 0 0 0 7 -2 a 13 13 0 0 1 -7 7 a 37 37 0 0 1 -36 39 a 37 37 0 0 1 -21 -6 a 37 37 0 0 0 19 -5 a 16 16 0 0 1 -12 -9 a 16 16 0 0 0 6 -1 a 16 16 0 0 1 -11 -13 a 16 16 0 0 0 6 2 a 14 14 0 0 1 -3 -18" stroke-linecap="round" />
</g>
</svg>