<svg width="261" height="261" viewBox="0 0 261 261" fill="none" xmlns="http://www.w3.org/2000/svg">
<path d="M130.5 63.8024C93.5903 63.8024 63.8024 93.5903 63.8024 130.5C63.8024 167.41 93.5903 197.198 130.5 197.198C167.41 197.198 197.198 167.41 197.198 130.5C197.198 93.5903 167.41 63.8024 130.5 63.8024ZM130.5 173.849C106.631 173.849 87.1514 154.369 87.1514 130.5C87.1514 106.631 106.631 87.1515 130.5 87.1515C154.369 87.1515 173.848 106.631 173.848 130.5C173.848 154.369 154.369 173.849 130.5 173.849ZM199.929 45.5265C191.311 45.5265 184.352 52.4856 184.352 61.1033C184.352 69.721 191.311 76.6802 199.929 76.6802C208.547 76.6802 215.506 69.7535 215.506 61.1033C215.509 59.057 215.107 57.0303 214.326 55.1393C213.544 53.2483 212.396 51.5301 210.949 50.0831C209.502 48.6361 207.784 47.4889 205.893 46.707C204.002 45.9251 201.975 45.5239 199.929 45.5265V45.5265ZM260.513 130.5C260.513 112.549 260.676 94.761 259.668 76.8428C258.659 56.0303 253.912 37.5592 238.692 22.34C223.441 7.08838 205.002 2.37305 184.19 1.36495C166.239 0.35684 148.451 0.519438 130.532 0.519438C112.582 0.519438 94.7935 0.35684 76.8753 1.36495C56.0628 2.37305 37.5917 7.1209 22.3725 22.34C7.12085 37.5917 2.40552 56.0303 1.39742 76.8428C0.389311 94.7936 0.551909 112.582 0.551909 130.5C0.551909 148.418 0.389311 166.239 1.39742 184.157C2.40552 204.97 7.15337 223.441 22.3725 238.66C37.6242 253.912 56.0628 258.627 76.8753 259.635C94.826 260.643 112.614 260.481 130.532 260.481C148.483 260.481 166.271 260.643 184.19 259.635C205.002 258.627 223.473 253.879 238.692 238.66C253.944 223.408 258.659 204.97 259.668 184.157C260.708 166.239 260.513 148.451 260.513 130.5V130.5ZM231.896 207.181C229.522 213.1 226.66 217.522 222.075 222.075C217.49 226.66 213.1 229.522 207.181 231.896C190.076 238.692 149.459 237.164 130.5 237.164C111.541 237.164 70.8917 238.692 53.7864 231.928C47.8678 229.555 43.4452 226.693 38.8924 222.108C34.3072 217.522 31.4455 213.132 29.0715 207.214C22.3075 190.076 23.8359 149.459 23.8359 130.5C23.8359 111.541 22.3075 70.8917 29.0715 53.7864C31.4455 47.8679 34.3072 43.4452 38.8924 38.8925C43.4777 34.3398 47.8678 31.4455 53.7864 29.0716C70.8917 22.3075 111.541 23.8359 130.5 23.8359C149.459 23.8359 190.108 22.3075 207.214 29.0716C213.132 31.4455 217.555 34.3072 222.107 38.8925C226.693 43.4777 229.554 47.8679 231.928 53.7864C238.692 70.8917 237.164 111.541 237.164 130.5C237.164 149.459 238.692 190.076 231.896 207.181Z" fill="#59061F"/>
</svg>
