<svg width="202" height="164" viewBox="0 0 202 164" fill="none" xmlns="http://www.w3.org/2000/svg">
<path d="M16.4901 6.87999C26.3196 19.3798 38.618 29.7215 52.6191 37.2605C66.6201 44.7995 82.0237 49.3743 97.8701 50.7C96.4287 44.6326 96.4011 38.315 97.7897 32.2353C99.1782 26.1556 101.946 20.4763 105.878 15.6363C109.811 10.7962 114.803 6.9248 120.47 4.32112C126.137 1.71743 132.326 0.451121 138.56 0.61999C144.369 0.349072 150.168 1.32639 155.568 3.48609C160.967 5.64579 165.841 8.9377 169.86 13.14C179.026 12.9206 187.85 9.61178 194.9 3.74999C192.321 12.6177 186.802 20.3443 179.25 25.66C187.001 25.7026 194.602 23.5308 201.16 19.4C197.032 29.3071 189.157 37.182 179.25 41.31C180.092 56.7767 177.823 72.2552 172.578 86.8295C167.332 101.404 159.215 114.778 148.709 126.159C138.203 137.541 125.52 146.7 111.411 153.093C97.3025 159.486 82.0547 162.984 66.5701 163.38C43.2695 163.876 20.3613 157.331 0.840088 144.6C21.7115 144.838 42.2593 139.431 60.3101 128.95C52.2241 127.681 44.5723 124.45 38.0244 119.539C31.4765 114.628 26.2321 108.187 22.7501 100.78C29.1526 100.947 35.5278 99.8846 41.5301 97.65C32.5425 94.797 24.543 89.4645 18.452 82.2661C12.3611 75.0676 8.42616 66.2959 7.10009 56.96C12.8812 60.2754 19.2659 62.4037 25.8801 63.22C17.8371 56.5031 12.4673 47.1264 10.7446 36.7901C9.02192 26.4538 11.0603 15.8423 16.4901 6.87999" fill="#59061F"/>
</svg>
