<svg width="200" height="140" viewBox="0 0 200 140" fill="none" xmlns="http://www.w3.org/2000/svg">
<path d="M198.073 28.05C197.486 21.4969 194.609 15.3601 189.947 10.7169C185.286 6.07371 179.138 3.22095 172.582 2.6594C156.906 1.3586 133.671 0 105.001 0C70.4761 0 44.4147 1.4105 27.5659 2.7332C20.9797 3.26231 14.793 6.10406 10.1004 10.7556C5.40785 15.4072 2.5119 21.5687 1.925 28.15C0.893601 39.0021 0 53.3344 0 70.423C0 87.0862 0.886199 101.165 1.9128 111.882C2.50556 118.458 5.40396 124.612 10.0956 129.257C14.7873 133.902 20.9702 136.739 27.5512 137.266C44.3994 138.588 70.4657 140 105.001 140C133.671 140 156.906 138.641 172.582 137.34C179.138 136.779 185.286 133.926 189.947 129.283C194.609 124.64 197.486 118.503 198.073 111.95C199.105 101.155 200 86.9189 200 70C200 53.0811 199.105 38.8452 198.073 28.05ZM77.7594 99.3878V40.6122L135.74 70L77.7594 99.3878Z" fill="#59061F"/>
</svg>
